<?xml version="1.0" encoding="UTF-8"?>
<svg width="25px" height="14px" viewBox="0 0 25 14" version="1.1" xmlns="http://www.w3.org/2000/svg" xmlns:xlink="http://www.w3.org/1999/xlink">
    <title>Google+</title>
    <g id="Page-1" stroke="none" stroke-width="1" fill="none" fill-rule="evenodd">
        <g id="Contact" transform="translate(-1334.000000, -1135.000000)" fill="#262626">
            <g id="Group" transform="translate(477.000000, 714.000000)">
                <g id="Get-Info" transform="translate(750.000000, 0.000000)">
                    <g id="Social" transform="translate(0.000000, 419.000000)">
                        <path d="M114.291667,8 L114.291667,10.4 L118.427083,10.4 C118.260417,11.429 117.177083,13.42 114.291667,13.42 C111.802083,13.42 109.770833,11.441 109.770833,9 C109.770833,6.56 111.802083,4.58 114.291667,4.58 C115.708333,4.58 116.65625,5.16 117.197917,5.66 L119.177083,3.83 C117.90625,2.69 116.260417,2 114.291667,2 C110.260417,2 107,5.13 107,9 C107,12.87 110.260417,16 114.291667,16 C118.5,16 121.292708,13.16 121.292708,9.16 C121.292708,8.7 121.239583,8.35 121.177083,8 L114.291667,8 L114.291667,8 Z M114.291667,8 L132,10 L128.875,10 L128.875,13 L126.791667,13 L126.791667,10 L123.666667,10 L123.666667,8 L126.791667,8 L126.791667,5 L128.875,5 L128.875,8 L132,8 L132,10 L114.291667,8 Z" id="Google+"></path>
                    </g>
                </g>
            </g>
        </g>
    </g>
</svg>