<?xml version="1.0" encoding="UTF-8"?>
<svg width="17px" height="14px" viewBox="0 0 17 14" version="1.1" xmlns="http://www.w3.org/2000/svg" xmlns:xlink="http://www.w3.org/1999/xlink">
    <title>Twitter</title>
    <g id="Page-1" stroke="none" stroke-width="1" fill="none" fill-rule="evenodd">
        <g id="Contact" transform="translate(-1227.000000, -1135.000000)" fill="#262626">
            <g id="Group" transform="translate(477.000000, 714.000000)">
                <g id="Get-Info" transform="translate(750.000000, 0.000000)">
                    <g id="Social" transform="translate(0.000000, 419.000000)">
                        <path d="M15.2601824,5.48683288 C15.2663488,5.63858956 15.2698725,5.79123892 15.2698725,5.94478097 C15.2698725,10.6153159 11.7620479,16 5.34718624,16 C3.37744844,16 1.54425329,15.4152904 0,14.4128037 C0.273085294,14.4449404 0.550575189,14.4619014 0.832469686,14.4619014 C2.46657685,14.4619014 3.9703078,13.896831 5.16395481,12.9487981 C3.63731993,12.9202321 2.34941445,11.8981062 1.90631153,10.4939106 C2.11861333,10.5358669 2.33708156,10.558184 2.56171624,10.558184 C2.87972847,10.558184 3.18805058,10.5144424 3.48051612,10.4341006 C1.88516945,10.1091628 0.683594155,8.68086463 0.683594155,6.96869221 L0.683594155,6.9240579 C1.1540056,7.18829306 1.69136698,7.34719123 2.26308426,7.36593764 C1.3275469,6.73213033 0.711783605,5.65019448 0.711783605,4.42453612 C0.711783605,3.77644583 0.883563064,3.16941912 1.18395689,2.6471976 C2.90439424,4.78518141 5.47403876,6.19294778 8.37226656,6.34024103 C8.3132449,6.08136198 8.28241269,5.81177071 8.28241269,5.53414525 C8.28241269,3.5827329 9.84340346,2 11.7699762,2 C12.7733444,2 13.6798114,2.42938213 14.3158358,3.11675062 C15.110426,2.95785245 15.8565654,2.66415864 16.5304695,2.25887904 C16.270598,3.08372123 15.71738,3.77644583 14.9967872,4.21386214 C15.7024044,4.12905694 16.3745466,3.93891475 17,3.65771855 C16.5322313,4.36651151 15.9411338,4.98871389 15.2601824,5.48683288" id="Twitter"></path>
                    </g>
                </g>
            </g>
        </g>
    </g>
</svg>