<?xml version="1.0" encoding="UTF-8"?>
<svg width="20px" height="14px" viewBox="0 0 20 14" version="1.1" xmlns="http://www.w3.org/2000/svg" xmlns:xlink="http://www.w3.org/1999/xlink">
    <title>YouTube</title>
    <g id="Page-1" stroke="none" stroke-width="1" fill="none" fill-rule="evenodd">
        <g id="Contact" transform="translate(-1293.000000, -1135.000000)" fill="#262626">
            <g id="Group" transform="translate(477.000000, 714.000000)">
                <g id="Get-Info" transform="translate(750.000000, 0.000000)">
                    <g id="Social" transform="translate(0.000000, 419.000000)">
                        <path d="M73.935,11.5817301 L73.934375,5.98907007 L79.338125,8.79504154 L73.935,11.5817301 Z M85.8,5.01994935 C85.8,5.01994935 85.604375,3.64837606 85.005,3.04438619 C84.244375,2.2512996 83.391875,2.24756742 83.00125,2.2015373 C80.2025,2 76.004375,2 76.004375,2 L75.995625,2 C75.995625,2 71.7975,2 68.99875,2.2015373 C68.6075,2.24756742 67.755625,2.2512996 66.994375,3.04438619 C66.395,3.64837606 66.2,5.01994935 66.2,5.01994935 C66.2,5.01994935 66,6.63100369 66,8.241436 L66,9.75172169 C66,11.362776 66.2,12.9732083 66.2,12.9732083 C66.2,12.9732083 66.395,14.3447816 66.994375,14.9487715 C67.755625,15.7418581 68.755,15.7169769 69.2,15.7997068 C70.8,15.9527258 76,16 76,16 C76,16 80.2025,15.9937797 83.00125,15.7922424 C83.391875,15.7455903 84.244375,15.7418581 85.005,14.9487715 C85.604375,14.3447816 85.8,12.9732083 85.8,12.9732083 C85.8,12.9732083 86,11.362776 86,9.75172169 L86,8.241436 C86,6.63100369 85.8,5.01994935 85.8,5.01994935 L85.8,5.01994935 Z" id="YouTube"></path>
                    </g>
                </g>
            </g>
        </g>
    </g>
</svg>