<?xml version="1.0" encoding="UTF-8"?>
<svg width="45px" height="45px" viewBox="0 0 45 45" version="1.1" xmlns="http://www.w3.org/2000/svg" xmlns:xlink="http://www.w3.org/1999/xlink">
    <title>wedding-arch</title>
    <defs>
        <filter id="filter-1">
            <feColorMatrix in="SourceGraphic" type="matrix" values="0 0 0 0 1.000000 0 0 0 0 0.489329 0 0 0 0 0.556957 0 0 0 1.000000 0"></feColorMatrix>
        </filter>
    </defs>
    <g id="Page-1" stroke="none" stroke-width="1" fill="none" fill-rule="evenodd" stroke-linecap="square">
        <g id="About_Us" transform="translate(-761.000000, -5467.000000)">
            <g id="wedding-arch" transform="translate(719.000000, 5425.000000)" filter="url(#filter-1)">
                <g transform="translate(42.000000, 42.000000)">
                    <path d="M40.5,44.5 L40.5,23.5 C40.5040803,17.9276012 37.9172313,12.6700153 33.5,9.273" id="Path" stroke="#1E1E1E"></path>
                    <path d="M11.4999952,9.273 C7.08276871,12.6700153 4.49591965,17.9276012 4.49999518,23.5 L4.49999518,44.5" id="Path" stroke="#1E1E1E"></path>
                    <line x1="0.5" y1="44.5" x2="8.5" y2="44.5" id="Path" stroke="#1E1E1E"></line>
                    <line x1="36.5" y1="44.5" x2="44.5" y2="44.5" id="Path" stroke="#1E1E1E"></line>
                    <polygon id="Path" stroke="#1E1E1E" points="14.5 30.5 16.5 22.5 28.5 22.5 30.5 30.5"></polygon>
                    <line x1="22.5" y1="30.5" x2="22.5" y2="44.5" id="Path" stroke="#1E1E1E"></line>
                    <path d="M28.442,1.656 C27.6427638,0.820695624 26.5022334,0.401833851 25.3523487,0.521320174 C24.2024639,0.640806496 23.1724197,1.28521607 22.562,2.267 C21.9511462,1.28515331 20.920773,0.640770923 19.770603,0.521295601 C18.620433,0.401820278 17.4796155,0.820667552 16.68,1.656 C15.1890791,3.22071162 15.1890791,5.68028838 16.68,7.245 L22.562,13.333 L28.443,7.245 C29.935168,5.68063266 29.9347277,3.21983328 28.442,1.656 L28.442,1.656 Z" id="Path" stroke="#1E1E1E"></path>
                </g>
            </g>
        </g>
    </g>
</svg>