<?xml version="1.0" encoding="UTF-8"?>
<svg width="31px" height="45px" viewBox="0 0 31 45" version="1.1" xmlns="http://www.w3.org/2000/svg" xmlns:xlink="http://www.w3.org/1999/xlink">
    <title>flower-rose</title>
    <defs>
        <filter id="filter-1">
            <feColorMatrix in="SourceGraphic" type="matrix" values="0 0 0 0 1.000000 0 0 0 0 0.489329 0 0 0 0 0.556957 0 0 0 1.000000 0"></feColorMatrix>
        </filter>
    </defs>
    <g id="Page-1" stroke="none" stroke-width="1" fill="none" fill-rule="evenodd">
        <g id="About_Us" transform="translate(-189.000000, -5467.000000)">
            <g id="flower-rose" transform="translate(140.000000, 5425.000000)" filter="url(#filter-1)">
                <g transform="translate(49.000000, 42.000000)">
                    <path d="M19.5,25.5 C19.502389,30.5398453 17.5013762,35.3739578 13.937667,38.937667 C10.3739578,42.5013762 5.5398453,44.502389 0.5,44.5" id="Path" stroke="#1E1E1E" stroke-linecap="square"></path>
                    <path d="M8.5,5.5 L8.5,14.5 C8.5,20.5751322 13.4248678,25.5 19.5,25.5 C25.5751322,25.5 30.5,20.5751322 30.5,14.5 L30.5,5.5" id="Path" stroke="#1E1E1E"></path>
                    <path d="M16.5,6 C17.4627061,5.65778664 18.478344,5.48851365 19.5,5.5 C22.261,5.5 24.5,6.619 24.5,8 C24.5,9.381 22.261,10.5 19.5,10.5 C13.425,10.5 8.5,8.261 8.5,5.5 C8.5,2.739 13.425,0.5 19.5,0.5 C25.575,0.5 30.5,2.739 30.5,5.5" id="Path" stroke="#1E1E1E"></path>
                    <path d="M10.115,41.891 C11.2361818,39.5437714 11.1442307,36.7976238 9.8685485,34.5306509 C8.59286631,32.2636781 6.29324521,30.7598415 3.705,30.5 C2.98148229,34.0305652 4.21944561,37.6767839 6.943,40.037" id="Path" stroke="#1E1E1E"></path>
                    <path d="M17,34.92 C18.7986721,33.9898518 20.908922,33.8719688 22.8,34.596 C25.6903192,35.6331452 27.7306554,38.234778 28.049,41.289 C24.5218627,42.0269624 20.8710801,40.8034073 18.501,38.089" id="Path" stroke="#1E1E1E"></path>
                    <path d="M19.5,25.5 C17.290861,25.5 15.5,23.709139 15.5,21.5 C15.5,15.5 24.5,17.5 24.5,8" id="Path" stroke="#1E1E1E"></path>
                </g>
            </g>
        </g>
    </g>
</svg>