<?xml version="1.0" encoding="UTF-8"?>
<svg width="24px" height="24px" viewBox="0 0 24 24" version="1.1" xmlns="http://www.w3.org/2000/svg" xmlns:xlink="http://www.w3.org/1999/xlink">
    <title>google+</title>
    <defs>
        <path d="M13.3082554,10.5415484 C13.3624866,10.8281398 13.4011935,11.1147312 13.4011935,11.4864839 C13.4011935,14.7318683 11.2247016,17.0322581 7.9483871,17.0322581 C4.81149462,17.0322581 2.27096774,14.4917608 2.27096774,11.3548387 C2.27096774,8.21791667 4.81149462,5.67741935 7.9483871,5.67741935 C9.482,5.67741935 10.7599812,6.23507796 11.7514005,7.16454839 L10.2100403,8.64393011 C9.79177419,8.2411586 9.05598656,7.76869086 7.9483871,7.76869086 C6.01203226,7.76869086 4.43193548,9.372 4.43193548,11.3548387 C4.43193548,13.3376774 6.01203226,14.9409866 7.9483871,14.9409866 C10.1945457,14.9409866 11.0388253,13.3221828 11.1704704,12.4933978 L7.9483871,12.4933978 L7.9483871,10.5415188 L13.3082554,10.5415188 L13.3082554,10.5415484 Z M18.7906909,10.7318898 L18.7906909,9.08387097 L17.1347473,9.08387097 L17.1347473,10.7318898 L15.4867285,10.7318898 L15.4867285,12.3878333 L17.1347473,12.3878333 L17.1347473,14.0358522 L18.7906909,14.0358522 L18.7906909,12.3878333 L20.4387097,12.3878333 L20.4387097,10.7318898 L18.7906909,10.7318898 L18.7906909,10.7318898 Z" id="path-1"></path>
    </defs>
    <g id="Page-1" stroke="none" stroke-width="1" fill="none" fill-rule="evenodd">
        <g id="Single_Post" transform="translate(-1412.000000, -2585.000000)">
            <g id="SOCIAL-Copy" transform="translate(1226.000000, 2574.000000)">
                <g id="google+" transform="translate(186.000000, 11.000000)">
                    <g id="Icons/Brands/google-plus-g" transform="translate(0.354839, 0.354839)">
                        <mask id="mask-2" fill="white">
                            <use xlink:href="#path-1"></use>
                        </mask>
                        <use id="google-plus-g" fill="#000000" fill-rule="nonzero" xlink:href="#path-1"></use>
                        <g id="Group" mask="url(#mask-2)" fill="#000000">
                            <g id="🎨-color">
                                <rect id="Rectangle" x="0" y="0" width="22.7096774" height="22.7096774"></rect>
                            </g>
                        </g>
                    </g>
                </g>
            </g>
        </g>
    </g>
</svg>