<?xml version="1.0" encoding="UTF-8"?>
<svg width="123px" height="112px" viewBox="0 0 123 112" version="1.1" xmlns="http://www.w3.org/2000/svg" xmlns:xlink="http://www.w3.org/1999/xlink">
    <title>love-camera</title>
    <g id="Page-1" stroke="none" stroke-width="1" fill="none" fill-rule="evenodd">
        <g id="Homepage" transform="translate(-1452.000000, -5545.000000)">
            <g id="Group-9" transform="translate(164.000000, 5539.000000)">
                <g id="Group-8" transform="translate(1288.000000, 7.000000)">
                    <g id="love-camera" transform="translate(1.000000, 0.000000)">
                        <path d="M10.4310345,110 L110.568966,110 C116.329867,110 121,105.353898 121,99.6226415 L121,29.0566038 C121,23.3253469 116.329867,18.6792453 110.568966,18.6792453 L91.7931034,18.6792453 L79.2758621,0 L50.0689655,0 L37.5517241,18.6792453 L10.4310345,18.6792453 C4.67013321,18.6792453 0,23.3253469 0,29.0566038 L0,99.6226415 C0,105.353898 4.67013321,110 10.4310345,110 Z" id="Path" stroke="#1E1E1E" stroke-linecap="square"></path>
                        <circle id="Oval" stroke="#000000" fill-rule="nonzero" cx="20" cy="38" r="5"></circle>
                        <path d="M86.0063324,47.1471362 C83.1531662,44.1485169 79.0780332,42.6438052 74.9688888,43.0716446 C70.8597443,43.499484 67.1791323,45.8117149 65,49.3342912 C62.819772,45.8131075 59.1393865,43.5020535 55.0308392,43.0742763 C50.922292,42.6464991 46.8476214,44.1501056 43.9936676,47.1471362 C38.6687775,52.7548922 38.6687775,61.5708767 43.9936676,67.1786327 L65,89 L86.0063324,67.1786327 C91.3312225,61.5708767 91.3312225,52.7548922 86.0063324,47.1471362 Z" id="Path" stroke="#1E1E1E" stroke-linecap="square"></path>
                    </g>
                </g>
            </g>
        </g>
    </g>
</svg>