<?xml version="1.0" encoding="UTF-8"?>
<svg width="125px" height="123px" viewBox="0 0 125 123" version="1.1" xmlns="http://www.w3.org/2000/svg" xmlns:xlink="http://www.w3.org/1999/xlink">
    <title>honeymoon</title>
    <g id="Page-1" stroke="none" stroke-width="1" fill="none" fill-rule="evenodd">
        <g id="Homepage" transform="translate(-164.000000, -5539.000000)" stroke="#1E1E1E">
            <g id="honeymoon" transform="translate(164.000000, 5539.000000)">
                <polyline id="Path" points="31 105.680717 46.8735728 122 53 115.70155 46.6121786 96"></polyline>
                <polyline id="Path" points="21.1111288 96 5 80.1264272 11.2181122 74 31 79.8466537"></polyline>
                <polyline id="Path" points="78 70.2833333 109.591653 122 122 109.5 101.319421 47"></polyline>
                <polyline id="Path" stroke-linecap="square" points="42 41.0648671 56.432501 50 80 26.2846944 58.2842181 19"></polyline>
                <path d="M43.32538,22.5536506 C48.2248733,17.6229548 48.2248733,9.62871754 43.32538,4.6980218 C38.4258866,-0.232673934 30.4822384,-0.232673934 25.5827451,4.6980218 L24,6.2929507 L22.4172549,4.6980218 C17.5177616,-0.232673934 9.57411335,-0.232673934 4.67462001,4.6980218 C-0.224873336,9.62871754 -0.224873336,17.6229548 4.67462001,22.5536506 L6.25945589,24.1464753 L24,42 L43.32538,22.5536506 Z" id="Path" stroke-linecap="square"></path>
                <path d="M117.118275,30.5051706 C122.811402,24.8100067 126.977613,11.4115818 121.284486,5.71641794 C115.591358,0.0212540993 102.19074,4.1895141 96.4955298,9.88259486 L38.1685752,68.2090717 L11.3090126,112.737171 C10.7983645,113.584235 10.9309186,114.670313 11.6303083,115.369697 C12.329698,116.069081 13.4157845,116.201634 14.2628562,115.69099 L58.7913199,88.8316474 L117.118275,30.5051706 Z" id="Path"></path>
            </g>
        </g>
    </g>
</svg>