<?xml version="1.0" encoding="UTF-8"?>
<svg width="39px" height="39px" viewBox="0 0 39 39" version="1.1" xmlns="http://www.w3.org/2000/svg" xmlns:xlink="http://www.w3.org/1999/xlink">
    <title>logo-instagram</title>
    <g id="Page-1" stroke="none" stroke-width="1" fill="none" fill-rule="evenodd">
        <g id="Homepage" transform="translate(-1448.000000, -9145.000000)" fill="#1E1E1E" fill-rule="nonzero">
            <g id="Group-17" transform="translate(336.000000, 9030.000000)">
                <g id="Group-16" transform="translate(944.000000, 115.000000)">
                    <g id="logo-instagram" transform="translate(168.000000, 0.000000)">
                        <path d="M19.5,3.51325 C24.7065,3.51325 25.324,3.53275 27.379625,3.627 C29.599375,3.72775 31.65825,4.173 33.242625,5.757375 C34.827,7.34175 35.27225,9.400625 35.373,11.620375 C35.46725,13.676 35.48675,14.2935 35.48675,19.5 C35.48675,24.7065 35.46725,25.324 35.373,27.379625 C35.27225,29.599375 34.827,31.65825 33.242625,33.242625 C31.65825,34.827 29.599375,35.27225 27.379625,35.373 C25.324,35.46725 24.7065,35.48675 19.5,35.48675 C14.2935,35.48675 13.676,35.46725 11.620375,35.373 C9.400625,35.27225 7.34175,34.827 5.757375,33.242625 C4.173,31.65825 3.72775,29.599375 3.627,27.379625 C3.53275,25.324 3.51325,24.7065 3.51325,19.5 C3.51325,14.2935 3.53275,13.676 3.627,11.620375 C3.72775,9.400625 4.173,7.34175 5.757375,5.757375 C7.34175,4.173 9.400625,3.72775 11.620375,3.627 C13.676,3.53275 14.2935,3.51325 19.5,3.51325 M19.5,0 C14.204125,0 13.5395,0.02275 11.4595,0.117 C8.29075,0.261625 5.507125,1.038375 3.27275,3.27275 C1.038375,5.507125 0.261625,8.29075 0.117,11.4595 C0.02275,13.5395 0,14.204125 0,19.5 C0,24.795875 0.02275,25.4605 0.117,27.5405 C0.261625,30.70925 1.038375,33.492875 3.27275,35.72725 C5.507125,37.961625 8.29075,38.738375 11.4595,38.883 C13.5395,38.97725 14.204125,39 19.5,39 C24.795875,39 25.4605,38.97725 27.5405,38.883 C30.70925,38.738375 33.492875,37.961625 35.72725,35.72725 C37.961625,33.492875 38.738375,30.70925 38.883,27.5405 C38.97725,25.4605 39,24.795875 39,19.5 C39,14.204125 38.97725,13.5395 38.883,11.4595 C38.738375,8.29075 37.961625,5.507125 35.72725,3.27275 C33.492875,1.038375 30.70925,0.261625 27.5405,0.117 C25.4605,0.02275 24.795875,0 19.5,0 L19.5,0 Z" id="Shape"></path>
                        <path d="M20,10 C14.4774424,10 10,14.4774424 10,20 C10,25.5225576 14.4774424,30 20,30 C25.5225576,30 30,25.5225576 30,20 C30,14.4774424 25.5225576,10 20,10 Z M20,26.4913989 C16.415125,26.4913989 13.5086011,23.584875 13.5086011,20 C13.5086011,16.415125 16.415125,13.5086011 20,13.5086011 C23.584875,13.5086011 26.4913989,16.415125 26.4913989,20 C26.4913989,23.584875 23.584875,26.4913989 20,26.4913989 Z" id="Shape"></path>
                        <circle id="Oval" cx="29.5" cy="9.5" r="2.5"></circle>
                    </g>
                </g>
            </g>
        </g>
    </g>
</svg>