<?xml version="1.0" encoding="UTF-8"?>
<svg width="39px" height="29px" viewBox="0 0 39 29" version="1.1" xmlns="http://www.w3.org/2000/svg" xmlns:xlink="http://www.w3.org/1999/xlink">
    <title>logo-youtube</title>
    <g id="Page-1" stroke="none" stroke-width="1" fill="none" fill-rule="evenodd">
        <g id="Homepage" transform="translate(-1346.000000, -9150.000000)" fill="#1E1E1E" fill-rule="nonzero">
            <g id="Group-17" transform="translate(336.000000, 9030.000000)">
                <g id="Group-16" transform="translate(944.000000, 115.000000)">
                    <g id="logo-youtube" transform="translate(66.000000, 5.000000)">
                        <path d="M38.675,6.78571429 C38.675,6.78571429 38.35,4.05357143 37.05,2.92857143 C35.5875,1.32142857 33.9625,1.32142857 33.15,1.32142857 C27.625,1 19.5,1 19.5,1 L19.5,1 C19.5,1 11.375,1 5.85,1.32142857 C5.0375,1.48214286 3.4125,1.48214286 1.95,2.92857143 C0.8125,4.05357143 0.325,6.78571429 0.325,6.78571429 C0.325,6.78571429 0,9.83928571 0,13.0535714 L0,15.9464286 C0,19 0.325,22.2142857 0.325,22.2142857 C0.325,22.2142857 0.65,24.9464286 1.95,26.0714286 C3.4125,27.6785714 5.3625,27.5178571 6.175,27.6785714 C9.2625,28 19.5,28 19.5,28 C19.5,28 27.625,28 33.15,27.5178571 C33.9625,27.3571429 35.5875,27.3571429 37.05,25.9107143 C38.1875,24.7857143 38.675,22.0535714 38.675,22.0535714 C38.675,22.0535714 39,19 39,15.7857143 L39,12.8928571 C39,9.83928571 38.675,6.78571429 38.675,6.78571429 Z M15.4375,19.4821429 L15.4375,8.71428571 L26,14.1785714 L15.4375,19.4821429 Z" id="Shape"></path>
                    </g>
                </g>
            </g>
        </g>
    </g>
</svg>