<?xml version="1.0" encoding="utf-8"?>
<svg width="71px" height="58px" viewbox="0 0 71 58" version="1.1" xmlns:xlink="http://www.w3.org/1999/xlink" xmlns="http://www.w3.org/2000/svg">
  <path d="M56.3714 58C60.4857 58 63.9524 56.5807 66.7714 53.7421C69.5905 50.9034 71 47.4127 71 43.2698C71 38.8201 69.5905 35.2526 66.7714 32.5675C63.9524 29.8823 60.4857 28.5397 56.3714 28.5397C53.1714 28.5397 50.3524 29.537 47.9143 31.5317C47.4571 30.1508 47.2286 28.5397 47.2286 26.6984C47.2286 22.2487 48.9429 17.8757 52.3714 13.5794C55.8 9.28307 59.8762 6.13757 64.6 4.14286L64.6 4.14286L62.5429 0C54.619 3.68254 48.7143 8.59259 44.8286 14.7302C40.9429 20.8677 39 27.7725 39 35.4444C39 41.4286 40.2952 46.4921 42.8857 50.6349C45.9333 55.545 50.4286 58 56.3714 58ZM17.3714 58C21.4857 58 24.9524 56.5807 27.7714 53.7421C30.5905 50.9034 32 47.4127 32 43.2698C32 38.8201 30.5905 35.2526 27.7714 32.5675C24.9524 29.8823 21.4857 28.5397 17.3714 28.5397C14.1714 28.5397 11.3524 29.537 8.91429 31.5317C8.45714 30.1508 8.22857 28.5397 8.22857 26.6984C8.22857 22.2487 9.94286 17.8757 13.3714 13.5794C16.8 9.28307 20.8762 6.13757 25.6 4.14286L25.6 4.14286L23.5429 0C15.619 3.68254 9.71429 8.59259 5.82857 14.7302C1.94286 20.8677 0 27.7725 0 35.4444C0 41.4286 1.29524 46.4921 3.88571 50.6349C6.93333 55.545 11.4286 58 17.3714 58Z" id="“" fill="#FF7D8E" stroke="none" />
</svg>