<?xml version="1.0" encoding="UTF-8"?>
<svg width="24px" height="24px" viewBox="0 0 24 24" version="1.1" xmlns="http://www.w3.org/2000/svg" xmlns:xlink="http://www.w3.org/1999/xlink">
    <title>twitter</title>
    <defs>
        <path d="M18.871912,7.5002369 C18.8839247,7.66834173 18.8839247,7.83648353 18.8839247,8.00458837 C18.8839247,13.1320077 14.9813273,19.0399983 7.84851478,19.0399983 C5.65102823,19.0399983 3.6096707,18.4035433 1.89251008,17.2988491 C2.20473118,17.3348505 2.50490255,17.3468632 2.82913642,17.3468632 C4.64232527,17.3468632 6.31147177,16.7344708 7.64437164,15.6897665 C5.93922379,15.6537282 4.51025874,14.5369842 4.01792003,12.9999412 C4.25810148,13.0359425 4.49824597,13.0599681 4.75044019,13.0599681 C5.09866263,13.0599681 5.44692204,13.011917 5.77111895,12.9279015 C3.99393145,12.5676294 2.66099462,11.0065978 2.66099462,9.12133233 L2.66099462,9.07331821 C3.17732191,9.36151378 3.77777554,9.54163138 4.41415659,9.56561996 C3.36945228,8.8691381 2.68502016,7.6803545 2.68502016,6.33544187 C2.68502016,5.61497144 2.87711358,4.95452789 3.21336022,4.37813676 C5.12265121,6.73171539 7.99259409,8.26872144 11.2107224,8.43686324 C11.1506956,8.14866767 11.1146573,7.8484963 11.1146573,7.54828797 C11.1146573,5.41082829 12.8438306,3.6696791 14.9932661,3.6696791 C16.1100101,3.6696791 17.1186761,4.13799227 17.8271707,4.89450101 C18.7037332,4.72639617 19.5442944,4.4021623 20.2888273,3.95787466 C20.0005948,4.85849966 19.3882023,5.6150084 18.5836794,6.09529738 C19.3642137,6.01128192 20.1207224,5.79508905 20.8171673,5.49491767 C20.2889012,6.26340222 19.6284207,6.94783434 18.871912,7.5002369 Z" id="path-1"></path>
    </defs>
    <g id="Page-1" stroke="none" stroke-width="1" fill="none" fill-rule="evenodd">
        <g id="Single_Post" transform="translate(-1295.000000, -2585.000000)">
            <g id="SOCIAL-Copy" transform="translate(1226.000000, 2574.000000)">
                <g id="twitter" transform="translate(69.000000, 11.000000)">
                    <g id="Icons/Brands/twitter" transform="translate(0.354839, 0.354839)">
                        <mask id="mask-2" fill="white">
                            <use xlink:href="#path-1"></use>
                        </mask>
                        <use id="twitter" fill="#000000" fill-rule="nonzero" xlink:href="#path-1"></use>
                        <g id="Group" mask="url(#mask-2)" fill="#000000">
                            <g id="🎨-color">
                                <rect id="Rectangle" x="0" y="0" width="22.7096774" height="22.7096774"></rect>
                            </g>
                        </g>
                    </g>
                </g>
            </g>
        </g>
    </g>
</svg>