<?xml version="1.0" encoding="utf-8"?>
<!-- Generator: Adobe Illustrator 25.0.0, SVG Export Plug-In . SVG Version: 6.00 Build 0)  -->
<svg version="1.1" id="Capa_1" xmlns="http://www.w3.org/2000/svg" xmlns:xlink="http://www.w3.org/1999/xlink" x="0px" y="0px"
	 viewBox="0 0 490.5 490.5" style="enable-background:new 0 0 490.5 490.5;" xml:space="preserve">
<style type="text/css">
	.st0{fill:#FFC107;}
</style>
<path class="st0" d="M487.4,355L252.7,120.4c-4.2-4.2-10.9-4.2-15.1,0L3,355c-4.1,4.2-4,11,0.3,15.1c4.1,4,10.7,4,14.8,0L245.2,143
	l227.1,227.1c4.2,4.1,11,4,15.1-0.3C491.4,365.8,491.4,359.2,487.4,355L487.4,355z"/>
<path d="M479.9,373.3c-2.8,0-5.5-1.1-7.6-3.1L245.2,143L18.1,370.2c-4.2,4.1-11,4-15.1-0.3c-4-4.1-4-10.7,0-14.8l234.7-234.7
	c4.2-4.2,10.9-4.2,15.1,0l234.7,234.7c4.2,4.2,4.1,10.9,0,15.1C485.4,372.1,482.7,373.3,479.9,373.3z"/>
</svg>
